<?xml version="1.0" standalone="no"?>
<!DOCTYPE svg PUBLIC "-//W3C//DTD SVG 20010904//EN"
 "http://www.w3.org/TR/2001/REC-SVG-20010904/DTD/svg10.dtd">
<svg version="1.0" xmlns="http://www.w3.org/2000/svg"
 width="2000.000000pt" height="2000.000000pt" viewBox="0 0 2000.000000 2000.000000"
 preserveAspectRatio="xMidYMid meet">

<g transform="translate(0.000000,2000.000000) scale(0.100000,-0.100000)"
fill="#000000" stroke="none">
<path d="M16190 18964 c-30 -8 -89 -30 -130 -50 -74 -36 -132 -93 -4566 -4528
-3913 -3914 -4495 -4499 -4521 -4551 -17 -33 -373 -859 -791 -1835 -497 -1162
-765 -1800 -776 -1847 -9 -40 -16 -100 -16 -135 1 -289 212 -557 490 -622 90
-22 230 -20 316 2 64 18 3549 1503 3659 1560 39 20 1068 1043 4505 4477 2450
2447 4475 4475 4500 4505 83 101 139 260 140 392 0 96 -26 207 -71 298 l-42
85 -1076 1077 -1076 1076 -95 45 c-52 25 -119 50 -148 56 -74 15 -236 13 -302
-5z m683 -3196 l-573 -573 -545 545 -545 545 572 572 573 573 545 -545 545
-545 -572 -572z m-4333 -4333 l-3155 -3155 -545 545 -545 545 3155 3155 3155
3155 545 -545 545 -545 -3155 -3155z m-4593 -3897 c-370 -158 -675 -287 -678
-286 -4 2 121 300 277 663 156 363 286 667 289 674 4 10 131 -110 395 -374
l389 -389 -672 -288z"/>
<path d="M1490 16225 c-232 -57 -426 -257 -475 -490 -22 -106 -22 -14104 0
-14210 48 -230 241 -431 470 -490 55 -13 788 -15 7150 -13 l7090 3 73 27 c158
57 292 178 362 323 77 159 71 -172 68 3805 l-3 3565 -28 82 c-55 164 -173 301
-322 374 -105 51 -180 69 -290 69 -110 0 -185 -18 -290 -69 -149 -73 -267
-210 -322 -374 l-28 -82 -3 -3222 -2 -3223 -6325 0 -6325 0 0 6330 0 6330
3203 0 c3163 0 3205 0 3281 20 108 27 207 83 285 160 80 78 130 158 167 265
23 69 27 96 27 195 0 98 -4 127 -27 197 -52 159 -167 295 -316 373 -148 76
199 70 -3785 69 -2957 -1 -3590 -3 -3635 -14z"/>
</g>
</svg>
